<?xml version="1.0" encoding="utf-8"?>
<!-- Generator: Adobe Illustrator 21.0.2, SVG Export Plug-In . SVG Version: 6.00 Build 0)  -->
<svg version="1.1" id="Layer_1" xmlns="http://www.w3.org/2000/svg" xmlns:xlink="http://www.w3.org/1999/xlink" x="0px" y="0px"
	 viewBox="0 0 512 512" style="enable-background:new 0 0 512 512;" xml:space="preserve">
<style type="text/css">
	.st0{fill:#BEBEBE;}
	.st1{fill:#A9A9A9;}
	.st2{fill:#D2D2D2;}
	.st3{fill:#FFFFFF;}
	.st4{fill:#F0F0F0;}
	.st5{fill:#A5A5A5;}
	.st6{fill:#979797;}
	.st7{fill:#D9D9D9;}
	.st8{fill:#C6C6C6;}
</style>
<circle class="st0" cx="256" cy="256" r="256"/>
<path class="st1" d="M512,256c0-11.3-0.7-22.5-2.2-33.4l-83.2-83.2l-8.9,5.3l-19.5-19.5l-14.8,17l14.3,14.3l-51.6,30.4l-61.7-61.7
	l-32.8,18.6l62.1,62.1l-39.2,23.1L170.7,125.2l-29.6,20l102.3,102.3l-94.8,55.9l-75.3,35.2l173.3,173.3c3.1,0.1,6.3,0.2,9.5,0.2
	C397.4,512,512,397.4,512,256z"/>
<path class="st2" d="M227.6,510.4c9.3,1,18.8,1.6,28.4,1.6s19.1-0.5,28.4-1.6V324.3h-56.9L227.6,510.4L227.6,510.4z"/>
<path class="st0" d="M284.4,324.3h-28.2V512c9.5,0,18.9-0.6,28.2-1.6V324.3z"/>
<rect x="85.3" y="139.4" class="st3" width="341.3" height="199.1"/>
<rect x="256.3" y="139.4" class="st4" width="170.4" height="199.1"/>
<rect x="73.3" y="310.1" class="st5" width="365.5" height="28.4"/>
<rect x="256.3" y="310.1" class="st6" width="182.4" height="28.4"/>
<g>
	<rect x="113.8" y="125.2" class="st2" width="56.9" height="28.4"/>
	<rect x="227.6" y="125.2" class="st2" width="56.9" height="28.4"/>
</g>
<g>
	<rect x="256.3" y="125.2" class="st0" width="28.2" height="28.4"/>
	<rect x="341.3" y="125.2" class="st0" width="56.9" height="28.4"/>
</g>
<rect x="184.5" y="215.1" class="st7" width="143.1" height="47.7"/>
<rect x="256" y="215.1" class="st8" width="71.5" height="47.7"/>
</svg>
