<?xml version="1.0" encoding="utf-8"?>
<!-- Generator: Adobe Illustrator 21.0.2, SVG Export Plug-In . SVG Version: 6.00 Build 0)  -->
<svg version="1.1" id="Layer_1" xmlns="http://www.w3.org/2000/svg" xmlns:xlink="http://www.w3.org/1999/xlink" x="0px" y="0px"
	 viewBox="0 0 512 512" style="enable-background:new 0 0 512 512;" xml:space="preserve">
<style type="text/css">
	.st0{fill:#BEBEBE;}
	.st1{fill:#A9A9A9;}
	.st2{fill:#EEEEEE;}
	.st3{fill:#D9D9D9;}
	.st4{fill:#D1D1D1;}
	.st5{fill:#A8A8A8;}
	.st6{fill:#BABABA;}
	.st7{fill:#9B9B9B;}
</style>
<circle class="st0" cx="256" cy="256" r="256"/>
<path class="st1" d="M512,256L369.8,113.8L257.2,290.5L142.2,398.2L256,512C397.4,512,512,397.4,512,256z"/>
<polygon class="st2" points="193.7,113.8 142.2,165.2 142.2,398.2 369.8,398.2 369.8,113.8 "/>
<g>
	<rect x="255.4" y="113.8" class="st3" width="114.3" height="284.4"/>
	<polygon class="st3" points="193.7,165.2 193.7,113.8 142.2,165.2 	"/>
</g>
<g>
	<rect x="170.7" y="196.5" class="st4" width="170.7" height="5.2"/>
	<rect x="170.7" y="225" class="st4" width="170.7" height="5.2"/>
	<rect x="170.7" y="253.4" class="st4" width="170.7" height="5.2"/>
	<rect x="170.7" y="281.9" class="st4" width="170.7" height="5.2"/>
	<rect x="170.7" y="310.3" class="st4" width="170.7" height="5.2"/>
	<path class="st4" d="M275.2,354c-5.9,0.8-8.7-1.7-12.1-6.1c-0.7-0.9-1.4-2-2.3-2.6c-3.9-2.5-7.7,0.6-11.1,2.5
		c-3.3,1.8-6.6,3.6-9.8,5.5c-1.7,0.9-7.2,5.1-8.9,4.5c0.1,0-2.7-11.4-3.6-13c-1.2-2.1-3.9-1.3-4.7,0.6c-1.1,2.6-2.2,5.5-3.7,7.9
		c-3,4.6-8.8,8.5-14.6,6.1c-1.7-0.7-2.8-1.9-3.6-3.5c2.2-1.9,4.1-4.2,5.5-7c2-4,4.6-10.9,2.8-15.4c-1.6-4-4.9-4-7.9-1.4
		c-5.6,5-8.1,14.1-6.3,21.6c-3.6,2.1-7.9,2.3-11.9-1.4c-2.4-2.3-6.1,1.4-3.7,3.7c5.3,5,11.9,5.2,17.4,2.5c0.9,1.5,1.9,2.9,3.3,4
		c10.2,8.6,19.3-0.3,24.6-9.5c0.2,2,0.2,4.1,0.7,6.3c0.3,1.2,0.5,2.1,1.4,3c3.4,3.3,8.6-0.6,11.6-2.3c3.8-2.1,7.5-4.2,11.3-6.2
		c3.4-1.9,6-4.2,10.4-1.4c0.7,0.5,1,1.7,1.7,2.2c4.3,3.3,8,5.2,13.7,4.5C278.4,358.7,278.5,353.5,275.2,354z M202.1,339.6
		c0.9-1.2,1.1-3.2,1.7-0.9c0.4,1.6-1.4,5.4-2,6.8c-0.6,1.5-1.5,3-2.6,4.3C199.1,345.9,200.3,341.9,202.1,339.6z"/>
</g>
<g>
	<rect x="255.4" y="196.5" class="st5" width="85.9" height="5.2"/>
	<rect x="255.4" y="225" class="st5" width="85.9" height="5.2"/>
	<rect x="255.4" y="253.4" class="st5" width="85.9" height="5.2"/>
	<rect x="255.4" y="281.9" class="st5" width="85.9" height="5.2"/>
	<rect x="255.4" y="310.3" class="st5" width="85.9" height="5.2"/>
	<path class="st5" d="M275.2,354c-5.9,0.8-8.7-1.7-12.1-6.1c-0.7-0.9-1.4-2-2.3-2.6c-1.8-1.1-3.6-1.1-5.3-0.5v6.4
		c1.3-0.1,2.7,0.2,4.4,1.3c0.7,0.5,1,1.7,1.7,2.2c4.3,3.3,8,5.2,13.7,4.5C278.4,358.7,278.5,353.5,275.2,354z"/>
</g>
<path class="st6" d="M304.1,334.2l-24-15.3l99.7-155.7c4.2-6.6,13-8.5,19.6-4.3l0,0c6.6,4.2,8.5,13,4.3,19.6L304.1,334.2z"/>
<path class="st7" d="M399.4,158.8L399.4,158.8c-0.1,0-0.1-0.1-0.2-0.1L292,326.5l12.1,7.7l99.7-155.7
	C408,171.9,406,163.1,399.4,158.8z"/>
<polygon class="st0" points="276.7,350.5 304.1,334.2 280.1,318.9 "/>
<polygon class="st1" points="276.8,350.2 276.7,350.5 304.1,334.2 292,326.5 "/>
</svg>
