<?xml version="1.0" encoding="utf-8"?>
<!-- Generator: Adobe Illustrator 21.0.2, SVG Export Plug-In . SVG Version: 6.00 Build 0)  -->
<svg version="1.1" id="Layer_1" xmlns="http://www.w3.org/2000/svg" xmlns:xlink="http://www.w3.org/1999/xlink" x="0px" y="0px"
	 viewBox="0 0 512 512" style="enable-background:new 0 0 512 512;" xml:space="preserve">
<style type="text/css">
	.st0{fill:#BEBEBE;}
	.st1{fill:#A9A9A9;}
	.st2{fill:#FFFFFF;}
	.st3{fill:#EEEEEE;}
	.st4{fill:#C4C4C4;}
	.st5{fill:#A0A0A0;}
	.st6{fill:#E0E0E0;}
	.st7{fill:#D9D9D9;}
</style>
<circle class="st0" cx="256" cy="256" r="256"/>
<path class="st1" d="M509.1,294.7L372.4,158L229.6,289.3l-95.7,69.8l151.2,151.2C400,497.4,491.8,408.3,509.1,294.7z"/>
<polygon class="st2" points="328.1,113.8 139.6,113.8 139.6,284.4 372.4,284.4 372.4,158 "/>
<polygon class="st3" points="372.4,158 328.1,113.8 255.4,113.8 255.4,284.4 372.4,284.4 "/>
<path class="st4" d="M356.3,369.8H155.7c-15.3,0-27.7-12.4-27.7-27.7V170.7h71.1l28.4,28.4H384v143
	C384,357.4,371.6,369.8,356.3,369.8z"/>
<path class="st5" d="M255.4,199.1v170.7h100.9c15.3,0,27.7-12.4,27.7-27.7v-143H255.4z"/>
<rect x="170.7" y="256" class="st6" width="170.7" height="56.9"/>
<rect x="255.4" y="256" class="st4" width="85.9" height="56.9"/>
<polygon class="st7" points="328.1,158 372.4,158 328.1,113.8 "/>
</svg>
