<?xml version="1.0" encoding="utf-8"?>
<!-- Generator: Adobe Illustrator 21.0.2, SVG Export Plug-In . SVG Version: 6.00 Build 0)  -->
<svg version="1.1" id="Layer_1" xmlns="http://www.w3.org/2000/svg" xmlns:xlink="http://www.w3.org/1999/xlink" x="0px" y="0px"
	 viewBox="0 0 512 512" style="enable-background:new 0 0 512 512;" xml:space="preserve">
<style type="text/css">
	.st0{fill:#BEBEBE;}
	.st1{fill:#A9A9A9;}
	.st2{fill:#A5A5A5;}
	.st3{fill:#979797;}
	.st4{fill:#EEEEEE;}
	.st5{fill:#D9D9D9;}
	.st6{fill:#777777;}
	.st7{fill:#D1D1D1;}
	.st8{fill:#A8A8A8;}
</style>
<circle class="st0" cx="256" cy="256" r="256"/>
<path class="st1" d="M511.9,262.7L366.8,117.6l-16,22.1l-37.9-37.9l-89.6,204.9l-78.4,87.5l117.8,117.8
	C398.8,508.4,508.4,398.7,511.9,262.7z"/>
<path class="st2" d="M358.3,398.2H153.7c-6.3,0-11.5-5.1-11.5-11.5V125.3c0-6.3,5.1-11.5,11.5-11.5h204.6c6.3,0,11.5,5.1,11.5,11.5
	v261.5C369.8,393.1,364.6,398.2,358.3,398.2z"/>
<path class="st3" d="M358.3,113.8H254.9v284.4h103.4c6.3,0,11.5-5.1,11.5-11.5V125.3C369.8,118.9,364.6,113.8,358.3,113.8z"/>
<rect x="162" y="131" class="st4" width="187.9" height="250"/>
<rect x="254.8" y="131" class="st5" width="95.1" height="250"/>
<rect x="199.1" y="101.7" class="st0" width="113.8" height="39.7"/>
<rect x="254.8" y="101.7" class="st1" width="58" height="39.7"/>
<g>
	<rect x="175.4" y="175.4" class="st6" width="19" height="19"/>
	<rect x="175.4" y="224.4" class="st6" width="19" height="19"/>
	<rect x="175.4" y="273.4" class="st6" width="19" height="19"/>
	<rect x="175.4" y="322.4" class="st6" width="19" height="19"/>
</g>
<g>
	<rect x="211.2" y="186.2" class="st7" width="113.8" height="5.2"/>
	<rect x="211.2" y="235.6" class="st7" width="113.8" height="5.2"/>
	<rect x="211.2" y="285" class="st7" width="113.8" height="5.2"/>
	<rect x="211.2" y="334.4" class="st7" width="113.8" height="5.2"/>
</g>
<g>
	<rect x="254.8" y="186.2" class="st8" width="70.1" height="5.2"/>
	<rect x="254.8" y="235.6" class="st8" width="70.1" height="5.2"/>
	<rect x="254.8" y="285" class="st8" width="70.1" height="5.2"/>
	<rect x="254.8" y="334.4" class="st8" width="70.1" height="5.2"/>
</g>
</svg>
