<?xml version="1.0" encoding="utf-8"?>
<!-- Generator: Adobe Illustrator 21.0.2, SVG Export Plug-In . SVG Version: 6.00 Build 0)  -->
<svg version="1.1" id="Layer_1" xmlns="http://www.w3.org/2000/svg" xmlns:xlink="http://www.w3.org/1999/xlink" x="0px" y="0px"
	 viewBox="0 0 512 512" style="enable-background:new 0 0 512 512;" xml:space="preserve">
<style type="text/css">
	.st0{fill:#BEBEBE;}
	.st1{fill:#A9A9A9;}
	.st2{fill:#454545;}
	.st3{fill:#383838;}
	.st4{fill:#989898;}
	.st5{fill:#828282;}
	.st6{fill:#FFFFFF;}
	.st7{fill:#F0F0F0;}
</style>
<circle class="st0" cx="256" cy="256" r="256"/>
<path class="st1" d="M511.9,261.6L405.2,154.9L143.4,306.6L89.9,344l45.9,45.9l-18.6,16l103.6,103.6c11.5,1.6,23.3,2.4,35.2,2.4
	C395.5,512,509,400.4,511.9,261.6z"/>
<path class="st2" d="M273.4,296.8c0-42.5-45.9-76.9-102.6-76.9S68.2,254.3,68.2,296.8c0,32.2,26.4,59.8,63.9,71.3
	c-1.4,21.2-14.9,38-14.9,38c29-6,45.7-18.8,55.4-32.3C228.5,373,273.4,338.8,273.4,296.8z"/>
<path class="st3" d="M171,219.8v156.1c0.6-0.7,1.1-1.5,1.7-2.2c55.8-0.7,100.8-34.9,100.8-76.9C273.4,254.3,227.6,219.9,171,219.8z"
	/>
<path class="st4" d="M191.2,199.3c0-47.7,51.6-86.4,115.2-86.4s115.2,38.7,115.2,86.4c0,36.2-29.7,67.1-71.7,80
	c1.6,23.8,16.7,42.6,16.7,42.6c-32.5-6.7-51.4-21.1-62.2-36.3C241.7,284.9,191.2,246.5,191.2,199.3z"/>
<path class="st5" d="M421.6,199.3c0-47.7-51.6-86.4-115.2-86.4c-0.9,0-1.8,0-2.7,0.1v172.7c0.2,0,0.5,0,0.7,0
	c10.9,15.1,29.7,29.5,62.2,36.3c0,0-15.1-18.8-16.7-42.6C392,266.5,421.6,235.5,421.6,199.3z"/>
<path class="st6" d="M357.2,167.9c-2.2,1-4.5,1.7-6.8,2.3c2.6-2.4,4.5-5.5,5.6-8.9l0,0c0.3-1-0.7-1.8-1.6-1.3l0,0
	c-3.2,1.9-6.7,3.4-10.4,4.3c-0.2,0.1-0.4,0.1-0.6,0.1c-0.7,0-1.3-0.2-1.8-0.7c-3.9-3.4-8.9-5.3-14-5.3c-2.2,0-4.5,0.3-6.7,1
	c-6.9,2.1-12.2,7.8-13.8,14.8c-0.6,2.6-0.8,5.2-0.5,7.8c0,0.3-0.1,0.5-0.2,0.6c-0.1,0.2-0.4,0.3-0.6,0.3c0,0,0,0-0.1,0
	c-15-1.4-28.6-8.6-38.2-20.4l0,0c-0.5-0.6-1.4-0.5-1.8,0.1l0,0c-1.9,3.2-2.9,6.9-2.9,10.7c0,5.7,2.3,11.2,6.3,15.1
	c-1.7-0.4-3.3-1-4.8-1.9l0,0c-0.7-0.4-1.6,0.1-1.6,1l0,0c-0.1,8.5,4.9,16.1,12.4,19.6c-0.1,0-0.3,0-0.5,0c-1.2,0-2.4-0.1-3.6-0.3
	l0,0c-0.8-0.2-1.5,0.6-1.3,1.4l0,0c2.4,7.6,9,13.2,16.8,14.4c-6.5,4.4-14,6.7-21.9,6.7l-2.5,0c-0.8,0-1.4,0.5-1.6,1.2
	c-0.2,0.7,0.2,1.5,0.8,1.9c8.9,5.2,19,7.9,29.2,7.9c9,0,17.4-1.8,25-5.3c7-3.2,13.1-7.8,18.3-13.7c4.8-5.5,8.6-11.8,11.2-18.7
	c2.5-6.6,3.8-13.7,3.8-20.5v-0.3c0-1.1,0.5-2.1,1.4-2.8c3.3-2.6,6.1-5.8,8.4-9.3l0,0C359.2,168.6,358.2,167.4,357.2,167.9
	L357.2,167.9z"/>
<path class="st7" d="M357.2,167.9c-2.2,1-4.5,1.7-6.8,2.3c2.6-2.4,4.5-5.5,5.6-8.9c0.3-1-0.7-1.8-1.6-1.3c-3.2,1.9-6.7,3.4-10.4,4.3
	c-0.2,0.1-0.4,0.1-0.6,0.1c-0.7,0-1.3-0.2-1.8-0.7c-3.9-3.4-8.9-5.3-14-5.3c-2.2,0-4.5,0.3-6.7,1c-6.9,2.1-12.2,7.8-13.8,14.8
	c-0.6,2.6-0.8,5.2-0.5,7.8c0,0.3-0.1,0.5-0.2,0.6c-0.1,0.2-0.4,0.3-0.6,0.3c0,0,0,0-0.1,0c-0.6-0.1-1.3-0.1-1.9-0.2v56.1
	c4.1-0.9,8-2.2,11.8-3.9c7-3.2,13.1-7.8,18.3-13.7c4.8-5.5,8.6-11.8,11.2-18.7c2.5-6.6,3.8-13.7,3.8-20.5v-0.3
	c0-1.1,0.5-2.1,1.4-2.8c3.3-2.6,6.1-5.8,8.4-9.3C359.2,168.6,358.2,167.4,357.2,167.9z"/>
<path class="st6" d="M159.4,271.1c0,2.2,0,12.1,0,12.1h-8.9v14.8h8.9v44.1h18.3v-44.1h12.3c0,0,1.1-7.1,1.7-14.9
	c-1.6,0-13.9,0-13.9,0s0-8.6,0-10.1c0-1.5,2-3.6,4-3.6c2,0,6.1,0,9.9,0c0-2,0-9,0-15.4c-5.1,0-11,0-13.5,0
	C159,254.1,159.4,268.9,159.4,271.1z"/>
<path class="st7" d="M181.7,269.5c2,0,6.1,0,9.9,0c0-2,0-9,0-15.4c-5.1,0-11,0-13.5,0c-2.8,0-5.1,0.3-7.2,0.9v87.3h6.7v-44.1h12.3
	c0,0,1.1-7.1,1.7-14.9c-1.6,0-13.9,0-13.9,0s0-8.6,0-10.1C177.7,271.5,179.7,269.5,181.7,269.5z"/>
</svg>
