<?xml version="1.0" encoding="utf-8"?>
<!-- Generator: Adobe Illustrator 21.0.2, SVG Export Plug-In . SVG Version: 6.00 Build 0)  -->
<svg version="1.1" id="Layer_1" xmlns="http://www.w3.org/2000/svg" xmlns:xlink="http://www.w3.org/1999/xlink" x="0px" y="0px"
	 viewBox="0 0 512 512" style="enable-background:new 0 0 512 512;" xml:space="preserve">
<style type="text/css">
	.st0{fill:#BEBEBE;}
	.st1{fill:#A9A9A9;}
	.st2{fill:#FFFFFF;}
	.st3{fill:#D1D1D1;}
	.st4{fill:#DFDFDF;}
	.st5{fill:#C9C9C9;}
	.st6{fill:#E5E5E5;}
	.st7{fill:#595959;}
	.st8{fill:#262626;}
	.st9{fill:#7D7D7D;}
	.st10{fill:#666666;}
	.st11{fill:#585858;}
	.st12{fill:#383838;}
	.st13{fill:#454545;}
	.st14{fill:#9D9D9D;}
	.st15{fill:#EEEEEE;}
	.st16{fill:#D9D9D9;}
	.st17{fill:#5D5D5D;}
	.st18{fill:#4C4C4C;}
	.st19{fill:#ABABAB;}
	.st20{fill:#9B9B9B;}
	.st21{fill:#848484;}
	.st22{fill:#767676;}
	.st23{fill:#C4C4C4;}
	.st24{fill:#B2B2B2;}
	.st25{fill:#989898;}
	.st26{fill:#828282;}
	.st27{fill:#E0E0E0;}
</style>
<circle class="st0" cx="256" cy="256" r="256"/>
<path class="st1" d="M507.3,305.1L372.7,170.6l-21,55.3l-72.1-72.7l-38.1,77.1l-57.4-57.4l-37.9,92.5l47,47l-136.4,0.5L256,512
	C380.6,512,484.4,423,507.3,305.1z"/>
<path class="st2" d="M146.2,234.9l-21.4,7.2c-13.3,4.5-22.3,17.1-22.3,31.3v20h57.7v-58.5L146.2,234.9L146.2,234.9z"/>
<path class="st3" d="M218.9,273.4c0-14.2-9-26.8-22.3-31.3l-21.4-7.2h-15v58.5h58.6V273.4L218.9,273.4z"/>
<polygon class="st4" points="175.5,234.9 160.8,249.6 146,234.9 146,220.2 175.5,220.2 "/>
<polygon class="st5" points="160.3,220.2 160.3,249.2 160.8,249.6 175.5,234.9 175.5,220.2 "/>
<path class="st6" d="M131.3,190.7c0-16.3,13.2-29.4,29.4-29.4s29.4,13.2,29.4,29.4s-13.2,44.2-29.4,44.2S131.3,207,131.3,190.7z"/>
<path class="st4" d="M160.8,161.3c-0.1,0-0.3,0-0.4,0v73.6c0.1,0,0.3,0,0.4,0c16.3,0,29.4-27.9,29.4-44.2S177,161.3,160.8,161.3z"/>
<path class="st7" d="M190.2,190.7c0-16.3-13.2-29.4-29.4-29.4s-29.4,13.2-29.4,29.4c0,6.5,2.1,14.8,5.7,22.5
	c-0.8-4.4-0.6-8.9-0.2-12.4c18.7-1.5,36.7-10.2,36.7-10.2s2.3,4.2,10.8,7.9c0.6,3.5,1.2,9.1,0.2,14.7
	C188.1,205.6,190.2,197.2,190.2,190.7z"/>
<path class="st8" d="M190.2,190.7c0-16.3-13.2-29.4-29.4-29.4c-0.1,0-0.3,0-0.4,0v34.6c7.9-2.6,13.2-5.2,13.2-5.2s2.3,4.2,10.8,7.9
	c0.6,3.5,1.2,9.1,0.2,14.7C188.1,205.6,190.2,197.2,190.2,190.7z"/>
<polygon class="st9" points="154.6,292.8 158.7,254.5 162.8,254.5 166.9,292.8 "/>
<polygon class="st10" points="162.8,254.5 160.3,254.5 160.3,292.8 166.9,292.8 "/>
<path class="st11" d="M139.3,237.1l-14.9,5c-13.5,4.5-22.5,17.1-22.5,31.3v20h58.5v-1.6L139.3,237.1z"/>
<path class="st12" d="M219.7,273.4c0-14.2-9.1-26.8-22.5-31.3l-14.9-5l-21.5,55.7l-0.4-1.1v1.6h59.3L219.7,273.4L219.7,273.4z"/>
<g>
	<polygon class="st13" points="182.2,237.1 186.3,254.5 178.6,258.4 186.3,267.3 160.8,292.8 	"/>
	<polygon class="st13" points="139.3,237.1 135.2,254.5 143,258.4 135.2,267.3 160.8,292.8 	"/>
</g>
<polygon class="st14" points="168.9,249.7 163.5,262.5 158,262.5 152.6,249.7 "/>
<polygon class="st9" points="168.9,249.7 160.3,249.7 160.3,262.5 163.5,262.5 "/>
<polygon class="st15" points="173.5,254.5 182.2,237.1 175.5,234.9 160.8,249.6 "/>
<g>
	<polygon class="st2" points="148,254.5 139.3,237.1 146,234.9 160.8,249.6 	"/>
	<path class="st2" d="M336.7,234.9l-21.4,7.2c-13.3,4.5-22.3,17.1-22.3,31.3v20h58v-58.5L336.7,234.9L336.7,234.9z"/>
</g>
<path class="st3" d="M409.4,273.4c0-14.2-9-26.8-22.3-31.3l-21.4-7.2h-14.7v58.5h58.3L409.4,273.4L409.4,273.4z"/>
<polygon class="st4" points="366,234.9 351.2,249.6 336.5,234.9 336.5,220.2 366,220.2 "/>
<polygon class="st5" points="351.1,220.2 351.1,249.5 351.2,249.6 366,234.9 366,220.2 "/>
<path class="st6" d="M321.8,190.7c0-16.3,13.2-29.4,29.4-29.4s29.4,13.2,29.4,29.4s-13.2,44.2-29.4,44.2S321.8,207,321.8,190.7z"/>
<path class="st4" d="M351.2,161.3c0,0-0.1,0-0.1,0v73.6c0,0,0.1,0,0.1,0c16.3,0,29.4-27.9,29.4-44.2
	C380.7,174.5,367.5,161.3,351.2,161.3z"/>
<path class="st7" d="M380.7,190.7c0-16.3-13.2-29.4-29.4-29.4s-29.4,13.2-29.4,29.4c0,6.5,2.1,14.8,5.7,22.5
	c-0.8-4.4-0.6-8.9-0.2-12.4c18.7-1.5,36.7-10.2,36.7-10.2s2.3,4.2,10.8,7.9c0.6,3.5,1.2,9.1,0.2,14.7
	C378.6,205.6,380.7,197.2,380.7,190.7z"/>
<path class="st8" d="M380.7,190.7c0-16.3-13.2-29.4-29.4-29.4c0,0-0.1,0-0.1,0v34.5c7.7-2.6,12.9-5.1,12.9-5.1s2.3,4.2,10.8,7.9
	c0.6,3.5,1.2,9.1,0.2,14.7C378.6,205.6,380.7,197.2,380.7,190.7z"/>
<polygon class="st9" points="345.1,292.8 349.2,254.5 353.3,254.5 357.4,292.8 "/>
<polygon class="st10" points="353.3,254.5 351.1,254.5 351.1,292.8 357.4,292.8 "/>
<path class="st11" d="M329.8,237.1l-14.9,5c-13.5,4.5-22.5,17.1-22.5,31.3v20h58.8v-0.9L329.8,237.1z"/>
<path class="st12" d="M410.1,273.4c0-14.2-9.1-26.8-22.5-31.3l-14.9-5l-21.5,55.7l-0.1-0.4v0.9h59L410.1,273.4L410.1,273.4z"/>
<g>
	<polygon class="st13" points="372.7,237.1 376.8,254.5 369,258.4 376.8,267.3 351.2,292.8 	"/>
	<polygon class="st13" points="329.8,237.1 325.7,254.5 333.4,258.4 325.7,267.3 351.2,292.8 	"/>
</g>
<polygon class="st14" points="359.4,249.7 354,262.5 348.5,262.5 343.1,249.7 "/>
<polygon class="st9" points="359.4,249.7 351.1,249.7 351.1,262.5 354,262.5 "/>
<polygon class="st15" points="364,254.5 372.7,237.1 366,234.9 351.2,249.6 "/>
<polygon class="st2" points="338.5,254.5 329.8,237.1 336.5,234.9 351.2,249.6 "/>
<path class="st15" d="M239.6,227l-24.1,8.2c-15,5.1-25.1,19.4-25.1,35.5v22.7h65.2V227L239.6,227L239.6,227z"/>
<path class="st16" d="M321.5,270.7c0-16.1-10.1-30.4-25.1-35.5l-24.1-8.2h-16.7v66.4h65.8V270.7z"/>
<polygon class="st4" points="272.7,227 256,243.7 239.3,227 239.3,210.2 272.7,210.2 "/>
<polygon class="st5" points="255.7,210.2 255.7,243.4 256,243.7 272.7,227 272.7,210.2 "/>
<path class="st6" d="M222.6,176.8c0-18.5,15-33.4,33.4-33.4s33.4,15,33.4,33.4S274.5,227,256,227S222.6,195.3,222.6,176.8z"/>
<path class="st4" d="M256,143.4c-0.1,0-0.2,0-0.3,0V227c0.1,0,0.2,0,0.3,0c18.5,0,33.4-31.7,33.4-50.2S274.5,143.4,256,143.4z"/>
<path class="st17" d="M282.8,185.7c0.7,4,1.4,10.4,0.2,16.6c4-8.7,6.4-18.2,6.4-25.6c0-18.5-15-33.4-33.4-33.4s-33.4,15-33.4,33.4
	c0,7.4,2.4,16.8,6.4,25.6c-0.9-5-0.7-10.2-0.2-14C228.8,188.3,248.2,162.1,282.8,185.7z"/>
<path class="st18" d="M289.4,176.8c0-18.5-15-33.4-33.4-33.4c-0.1,0-0.2,0-0.3,0v32.5c7.6,0.1,16.6,2.7,27.1,9.9
	c0.7,4,1.4,10.4,0.2,16.6C287.1,193.7,289.4,184.2,289.4,176.8z"/>
<polygon class="st19" points="249,292.8 253.7,249.3 258.3,249.3 263,292.8 "/>
<polygon class="st20" points="258.3,249.3 255.7,249.3 255.7,292.8 263,292.8 "/>
<path class="st21" d="M231.6,229.5l-16.9,5.6c-15.3,5.1-25.6,19.4-25.6,35.5v22.7h66.6V292L231.6,229.5z"/>
<path class="st22" d="M322.9,270.7c0-16.1-10.3-30.4-25.6-35.5l-16.9-5.6L256,292.8l-0.3-0.7v1.3h67.2V270.7L322.9,270.7z"/>
<polygon class="st11" points="280.4,229.5 285,249.3 276.2,253.7 285,263.8 256,292.8 "/>
<polygon class="st22" points="231.6,229.5 227,249.3 235.8,253.7 227,263.8 256,292.8 "/>
<polygon class="st23" points="265.2,243.8 259.1,258.3 252.9,258.3 246.8,243.8 "/>
<polygon class="st19" points="265.2,243.8 255.7,243.8 255.7,258.3 259.1,258.3 "/>
<polygon class="st15" points="270.5,249.3 280.4,229.5 272.7,227 256,243.7 "/>
<polygon class="st2" points="241.5,249.3 231.6,229.5 239.3,227 256,243.7 "/>
<path class="st23" d="M440.4,341.3H113.8v-56.9h326.6c8.1,0,14.7,6.6,14.7,14.7v27.4C455.1,334.7,448.5,341.3,440.4,341.3z"/>
<path class="st24" d="M113.8,312.9v28.4h326.6c8.1,0,14.7-6.6,14.7-14.7v-13.7L113.8,312.9L113.8,312.9z"/>
<rect x="113.8" y="284.4" class="st25" width="302.8" height="56.9"/>
<rect x="113.8" y="312.9" class="st26" width="302.8" height="28.4"/>
<polygon class="st27" points="113.8,284.4 56.9,312.9 113.8,341.3 "/>
<polygon class="st23" points="56.9,312.9 113.8,341.3 113.8,312.9 "/>
<polygon class="st7" points="56.9,312.9 83.5,326.2 83.5,299.6 "/>
<polygon class="st8" points="56.9,312.9 83.5,326.2 83.5,312.9 "/>
</svg>
